<svg width="36" height="33" viewBox="0 0 36 33" fill="none" xmlns="http://www.w3.org/2000/svg">
<path d="M31.75 4.625H26.9856L24.643 1.11188C24.5175 0.923761 24.3475 0.769505 24.1481 0.662775C23.9488 0.556045 23.7261 0.500136 23.5 0.5H12.5C12.2739 0.500136 12.0512 0.556045 11.8519 0.662775C11.6525 0.769505 11.4825 0.923761 11.357 1.11188L9.01266 4.625H4.25C3.15598 4.625 2.10677 5.0596 1.33318 5.83318C0.559597 6.60677 0.125 7.65598 0.125 8.75V28C0.125 29.094 0.559597 30.1432 1.33318 30.9168C2.10677 31.6904 3.15598 32.125 4.25 32.125H31.75C32.844 32.125 33.8932 31.6904 34.6668 30.9168C35.4404 30.1432 35.875 29.094 35.875 28V8.75C35.875 7.65598 35.4404 6.60677 34.6668 5.83318C33.8932 5.0596 32.844 4.625 31.75 4.625ZM24.1875 17.6875C24.1875 18.9113 23.8246 20.1076 23.1447 21.1251C22.4648 22.1426 21.4985 22.9357 20.3679 23.404C19.2372 23.8723 17.9931 23.9949 16.7929 23.7561C15.5926 23.5174 14.4901 22.9281 13.6248 22.0627C12.7594 21.1974 12.1701 20.0949 11.9314 18.8946C11.6926 17.6944 11.8152 16.4503 12.2835 15.3196C12.7518 14.189 13.5449 13.2227 14.5624 12.5428C15.5799 11.8629 16.7762 11.5 18 11.5C19.641 11.5 21.2148 12.1519 22.3752 13.3123C23.5356 14.4727 24.1875 16.0465 24.1875 17.6875Z" fill="#BDBDBD"/>
</svg>
