<svg width="40" height="35" viewBox="0 0 40 35" fill="none" xmlns="http://www.w3.org/2000/svg">
<path d="M7.07764 11.5894C7.07764 10.2301 7.47974 9.06951 8.32356 8.23535L9.79107 9.68607C8.15773 11.2949 9.58415 16.297 14.2347 20.8987C18.8852 25.5003 23.9482 26.909 25.58 25.2972L27.0476 26.748C24.2945 29.4695 18.0238 27.5386 12.7745 22.3479C9.13362 18.7472 7.07764 14.662 7.07764 11.5894Z" fill="#009A46"/>
<path d="M16.3319 27.9986C14.9568 27.9986 13.7828 27.6011 12.9375 26.767L14.405 25.3163C16.0354 26.928 21.0954 25.5179 25.7504 20.9177C30.4053 16.3175 31.8288 11.3154 30.1984 9.70365L31.6659 8.25293C34.4204 10.9745 32.4657 17.1734 27.2149 22.3626C23.5726 25.9676 19.44 27.9986 16.3319 27.9986Z" fill="#FF5805"/>
<path d="M27.7009 20.2872C26.8101 17.7514 24.9904 15.0414 22.5764 12.6565C17.3271 7.46579 11.0564 5.53344 8.30333 8.25643C8.10815 8.45083 8.27691 8.93102 8.68194 9.33141C9.08698 9.73181 9.57272 9.89719 9.7679 9.70425C11.3998 8.0925 16.4598 9.5026 21.1132 14.1043C23.3145 16.2803 24.9552 18.7103 25.7462 20.9589C26.4389 22.9304 26.3713 24.5204 25.5642 25.3183C25.3676 25.5113 25.5378 25.9929 25.9414 26.3918C26.3449 26.7908 26.8321 26.9591 27.0288 26.7647C28.4391 25.3705 28.6783 23.0668 27.7009 20.2872Z" fill="#F5AFCB"/>
<path d="M31.6632 8.25584C30.25 6.8588 27.9225 6.62233 25.1078 7.58996C22.5441 8.4691 19.8013 10.2694 17.3887 12.6544C12.1394 17.8436 10.1847 24.0425 12.9377 26.7655C13.1344 26.9585 13.6201 26.7917 14.0252 26.3927C14.4302 25.9938 14.599 25.5121 14.4023 25.3177C12.7675 23.706 14.1983 18.7039 18.8533 14.1022C21.0545 11.9262 23.5126 10.3043 25.7873 9.52232C27.7816 8.83903 29.39 8.90431 30.1986 9.7022C30.3938 9.89515 30.881 9.72832 31.2846 9.32792C31.6881 8.92752 31.8584 8.44879 31.6632 8.25584Z" fill="#FF9B00"/>
</svg>
