<svg width="26" height="26" viewBox="0 0 26 26" fill="none" xmlns="http://www.w3.org/2000/svg">
<mask id="mask0_241_6703" style="mask-type:luminance" maskUnits="userSpaceOnUse" x="1" y="1" width="24" height="24">
<path d="M24.1043 10.833H13.0002V15.4372H19.3918C18.796 18.3622 16.3043 20.0413 13.0002 20.0413C9.10016 20.0413 5.9585 16.8997 5.9585 12.9997C5.9585 9.09968 9.10016 5.95801 13.0002 5.95801C14.6793 5.95801 16.196 6.55384 17.3877 7.52884L20.8543 4.06217C18.7418 2.22051 16.0335 1.08301 13.0002 1.08301C6.39183 1.08301 1.0835 6.39134 1.0835 12.9997C1.0835 19.608 6.39183 24.9163 13.0002 24.9163C18.9585 24.9163 24.3752 20.583 24.3752 12.9997C24.3752 12.2955 24.2668 11.5372 24.1043 10.833Z" fill="white"/>
</mask>
<g mask="url(#mask0_241_6703)">
<path d="M0 20.0413V5.95801L9.20833 12.9997L0 20.0413Z" fill="#FBBC05"/>
</g>
<mask id="mask1_241_6703" style="mask-type:luminance" maskUnits="userSpaceOnUse" x="1" y="1" width="24" height="24">
<path d="M24.1043 10.833H13.0002V15.4372H19.3918C18.796 18.3622 16.3043 20.0413 13.0002 20.0413C9.10016 20.0413 5.9585 16.8997 5.9585 12.9997C5.9585 9.09968 9.10016 5.95801 13.0002 5.95801C14.6793 5.95801 16.196 6.55384 17.3877 7.52884L20.8543 4.06217C18.7418 2.22051 16.0335 1.08301 13.0002 1.08301C6.39183 1.08301 1.0835 6.39134 1.0835 12.9997C1.0835 19.608 6.39183 24.9163 13.0002 24.9163C18.9585 24.9163 24.3752 20.583 24.3752 12.9997C24.3752 12.2955 24.2668 11.5372 24.1043 10.833Z" fill="white"/>
</mask>
<g mask="url(#mask1_241_6703)">
<path d="M0 5.95833L9.20833 13L13 9.69583L26 7.58333V0H0V5.95833Z" fill="#EA4335"/>
</g>
<mask id="mask2_241_6703" style="mask-type:luminance" maskUnits="userSpaceOnUse" x="1" y="1" width="24" height="24">
<path d="M24.1043 10.833H13.0002V15.4372H19.3918C18.796 18.3622 16.3043 20.0413 13.0002 20.0413C9.10016 20.0413 5.9585 16.8997 5.9585 12.9997C5.9585 9.09968 9.10016 5.95801 13.0002 5.95801C14.6793 5.95801 16.196 6.55384 17.3877 7.52884L20.8543 4.06217C18.7418 2.22051 16.0335 1.08301 13.0002 1.08301C6.39183 1.08301 1.0835 6.39134 1.0835 12.9997C1.0835 19.608 6.39183 24.9163 13.0002 24.9163C18.9585 24.9163 24.3752 20.583 24.3752 12.9997C24.3752 12.2955 24.2668 11.5372 24.1043 10.833Z" fill="white"/>
</mask>
<g mask="url(#mask2_241_6703)">
<path d="M0 20.0417L16.25 7.58333L20.5292 8.125L26 0V26H0V20.0417Z" fill="#34A853"/>
</g>
<mask id="mask3_241_6703" style="mask-type:luminance" maskUnits="userSpaceOnUse" x="1" y="1" width="24" height="24">
<path d="M24.1043 10.833H13.0002V15.4372H19.3918C18.796 18.3622 16.3043 20.0413 13.0002 20.0413C9.10016 20.0413 5.9585 16.8997 5.9585 12.9997C5.9585 9.09968 9.10016 5.95801 13.0002 5.95801C14.6793 5.95801 16.196 6.55384 17.3877 7.52884L20.8543 4.06217C18.7418 2.22051 16.0335 1.08301 13.0002 1.08301C6.39183 1.08301 1.0835 6.39134 1.0835 12.9997C1.0835 19.608 6.39183 24.9163 13.0002 24.9163C18.9585 24.9163 24.3752 20.583 24.3752 12.9997C24.3752 12.2955 24.2668 11.5372 24.1043 10.833Z" fill="white"/>
</mask>
<g mask="url(#mask3_241_6703)">
<path d="M26.0003 25.9997L9.20866 12.9997L7.04199 11.3747L26.0003 5.95801V25.9997Z" fill="#4285F4"/>
</g>
</svg>
